<?xml version="1.0" encoding="UTF-8" standalone="no"?>
<svg
   width="938.5589"
   height="851.75421"
   viewBox="0 0 938.55889 851.75421"
   version="1.1"
   id="svg2"
   xmlns="http://www.w3.org/2000/svg"
   xmlns:svg="http://www.w3.org/2000/svg">
  <defs
     id="defs2" />
  <g
     id="g1"
     transform="matrix(0.96187993,0.01231459,-0.01231459,0.96187993,6.3656759,27.748218)">
    <path
       d="m 563.68123,879.88851 c -8.73599,-3.27295 -13.76633,-7.37736 -16.646,-13.5811 -2.04254,-76.43079 0.63283,-153.04113 1.28677,-229.52031 0.61438,-74.77621 0.70853,-78.00871 2.55616,-81.28421 3.15404,-5.48366 9.86253,-8.66759 17.19369,-10.86677 -0.95416,-44.43845 -4.96015,-187.51716 -6.83097,-222.36454 44.20886,0.0161 88.99194,0.25643 130.25844,1.53389 0.42734,0.0132 1.77585,12.03199 5.95948,219.66307 7.73108,2.44122 15.47221,6.99044 17.76161,12.97754 4.19198,98.43943 11.07286,196.8448 14.02819,295.30813 0.44798,15.85794 0.37086,16.31092 -3.3784,20.38636 -9.05949,9.83524 -23.38285,12.87168 -64.50576,13.64052 -49.71485,0.94084 -85.14895,-1.19606 -97.68321,-5.89258 z"
       style="display:inline;fill:#010101;stroke-width:0.999478"
       id="path1-1"
       transform="rotate(-44.389847,513.17788,426.70561)" />
    <path
       d="m 453.47922,298.21349 c -34.42864,32.6673 -62.93614,59.3249 -63.34588,59.23322 -2.23116,-0.49923 -52.44966,-51.07061 -176.53027,-174.75301 33.81249,-32.72947 96.13089,-91.407901 182.79882,-172.144343 14.04225,-13.0751187 27.1932,-24.076827 29.25488,-24.438659 6.48355,-1.166133 31.91022,-4.826227 72.73655,-10.495427 90.34347,-12.538924 93.34527,-12.88697 99.47166,-11.491594 12.35237,2.800761 24.17622,14.857265 27.3387,27.8629278 1.27275,5.2482134 -0.34823,16.1637967 -10.22997,68.7101672 -6.46611,34.353746 -13.4454,71.553468 -15.50982,82.664658 l -3.75092,20.19383 -39.82809,37.62654 c -21.89506,20.69203 -67.98984,64.36154 -102.40568,97.03171 z m -79.44651,73.83805 c -0.9473,0.94277 -4.77872,0.89646 -10.73105,-0.15282 l -0.0868,-0.007 c -3.86249,-0.67996 -6.83721,-1.19814 -9.85983,-2.31675 -10.35292,-3.82767 -21.18484,-14.59337 -69.22608,-62.28599 -66.4543,-65.97809 -70.41188,-70.10705 -75.51562,-78.58361 -6.65817,-11.09723 -11.30324,-32.49402 -6.46479,-29.82653 52.82229,53.81694 113.31103,114.50631 171.88413,173.17284 z"
       style="display:inline;fill:#010101;stroke-width:1.25425"
       id="path1-5" />
    <path
       d="m 284.96033,849.04032 c -4.14,1.78 -7.73,2.44 -14.5,2.66 -10.1,0.34 -16.86,-1.51 -23.36,-6.37 -0.52393,-0.39295 -217.981013,-214.4432 -228.539997,-230.53 -10.7100002,-16.33 -16.0400002,-32 -17.63000023,-51.82 -0.51,-6.33 -0.93000000303,-36.92 -0.93000000303,-68 -0.009999997,-61.18 0.17000000303,-63.55 5.50000003303,-74.08 3.4,-6.7 10.4500002,-13.3 18.4200002,-17.22 l 6.5,-3.2 c 48.346665,0.0107 96.693327,0.01 145.039997,0.01 l 9.71,2.68 c 11.79,3.25 24.7,9.17 33.63,15.43 4.18,2.93 48.1,46.04 117.85,115.7 100.44,100.29 111.45,111.6 113.81,116.86 4.85,10.81 4.39,24.46 -1.19,34.9 -2.48973,4.66639 -154.56367,158.77727 -164.31,162.98 z m 115,-0.51 c -5.2,2.32 -8.19,2.96 -15,3.19 -11.64,0.39 -19.46,-2.55 -28.34,-10.65 -1.31,-1.2 -2.59,-1.89 -3.06,-2.93 -3.39913,-7.49869 140.79887,-142.81578 146.21,-153.68 5.74,-11.55 5.03,-25.86 -1.79,-36.21 -4.46,-6.78 -224.03,-226.33 -231.02,-231.01 -7.39,-4.94 -18.9,-10.47 -29,-13.95 l -9.5,-3.26 31.5,0.31 c 28.63,0.28 32.27,0.51 39.96,2.51 10.31,2.68 24.95,9.49 33.89,15.76 6.56592,4.60405 225.9286,221.38863 231.48,231.87 3.01,5.69 3.17,6.57 3.17,17 0,10.54 -0.14,11.25 -3.29,17.06 -4.06567,7.50123 -153.97622,158.98904 -165.21,163.99 z m -309.819997,-314.7 c 17.019997,2.75 34.099997,-6.55 41.659997,-22.67 2.35,-5.02 2.66,-6.9 2.66,-16.18 0,-9.44 -0.28,-11.07 -2.76,-16.12 -5.79,-11.78 -15.72,-19.43 -28.42,-21.91 -15.499997,-3.02 -33.189997,5.19 -40.619997,18.85 -8.68,15.93 -6.72,32.68 5.33,45.55 6.54,7 13.93,11.16 22.15,12.48 z"
       fill="#010101"
       id="path1"
       style="display:inline" />
  </g>
</svg>
